<?xml version="1.0" standalone="no"?><!DOCTYPE svg PUBLIC "-//W3C//DTD SVG 1.1//EN" "http://www.w3.org/Graphics/SVG/1.1/DTD/svg11.dtd"><svg t="1632641852673" class="icon" viewBox="0 0 1024 1024" version="1.1" xmlns="http://www.w3.org/2000/svg" p-id="22533" xmlns:xlink="http://www.w3.org/1999/xlink" width="200" height="200"><defs><style type="text/css"></style></defs><path d="M564 512l262.4-312.8c4-5.6 0.8-12.8-6.4-12.8h-80c-4.8 0-8.8 2.4-12 5.6L512 449.6 295.2 192c-3.2-4-7.2-5.6-12-5.6h-80c-7.2 0-10.4 8-6.4 12.8L460 512l-262.4 312.8c-4 5.6-0.8 12.8 6.4 12.8h80c4.8 0 9.6-2.4 12-5.6l216-257.6L728.8 832c3.2 4 7.2 5.6 12 5.6h80c7.2 0 10.4-8 6.4-12.8L564 512z" p-id="22534"></path></svg>