<?xml version="1.0" standalone="no"?><!DOCTYPE svg PUBLIC "-//W3C//DTD SVG 1.1//EN" "http://www.w3.org/Graphics/SVG/1.1/DTD/svg11.dtd"
><svg
  t="1631093077173"
  class="icon"
  viewBox="0 0 1024 1024"
  version="1.1"
  xmlns="http://www.w3.org/2000/svg"
  p-id="22365"
  xmlns:xlink="http://www.w3.org/1999/xlink"
  width="200"
  height="200"
>
  <defs><style type="text/css"></style></defs>
  <path
    d="M80.896 621.4656A38.6048 38.6048 0 0 0 87.1424 665.6c12.4928 12.4928 31.3344 6.2464 43.8272-6.3488 0 0 175.104-206.336 381.5424-206.336 200.0896 0 381.5424 206.336 381.5424 206.336a30.72 30.72 0 0 0 43.7248-43.7248c0-6.2464-37.4784-43.8272-100.0448-93.7984L919.04 440.32a30.72 30.72 0 0 0 0-43.8272c0-6.2464-12.4928-6.2464-18.7392-6.2464a22.9376 22.9376 0 0 0-18.7392 6.2464l-93.9008 93.7984a617.2672 617.2672 0 0 0-143.36-75.0592l37.4784-112.64c6.2464-18.7392-6.2464-31.3344-18.7392-37.5808h-6.656a31.9488 31.9488 0 0 0-31.744 24.9856L587.5712 396.288c-25.088 0-50.0736-6.2464-75.0592-6.2464a304.5376 304.5376 0 0 0-75.0592 6.2464l-37.5808-106.2912c0-12.5952-18.7392-25.088-30.72-25.088h-6.2464c-18.7392 6.2464-24.9856 25.088-18.7392 43.8272l30.72 106.2912a523.6736 523.6736 0 0 0-143.36 75.0592l-81.3056-87.552a32.4608 32.4608 0 0 0-24.9856-12.4928 23.2448 23.2448 0 0 0-18.8416 6.2464 30.72 30.72 0 0 0 0 43.8272l81.92 81.3056A540.8768 540.8768 0 0 0 80.896 621.4656z m325.2224 37.4784a100.1472 100.1472 0 1 0 100.1472-100.0448 100.1472 100.1472 0 0 0-100.1472 100.0448z m0 0"
    p-id="22366"
  ></path>
</svg>
