<?xml version="1.0" standalone="no"?><!DOCTYPE svg PUBLIC "-//W3C//DTD SVG 1.1//EN" "http://www.w3.org/Graphics/SVG/1.1/DTD/svg11.dtd"
><svg
  t="1631003508582"
  class="icon"
  viewBox="0 0 1024 1024"
  version="1.1"
  xmlns="http://www.w3.org/2000/svg"
  p-id="43833"
  xmlns:xlink="http://www.w3.org/1999/xlink"
  width="200"
  height="200"
>
  <defs><style type="text/css"></style></defs>
  <path
    d="M227.555556 519.111111c0 19.911111-15.644444 35.555556-34.133334 35.555556H76.8C58.311111 554.666667 42.666667 539.022222 42.666667 519.111111S58.311111 483.555556 76.8 483.555556h115.2c19.911111 0 35.555556 15.644444 35.555556 35.555555z m12.8 186.311111l-92.444445 58.311111c-15.644444 9.955556-34.133333 4.266667-44.088889-12.8s-4.266667-38.4 11.377778-48.355555l92.444444-58.311111c15.644444-9.955556 34.133333-4.266667 44.088889 12.8s4.266667 38.4-11.377777 48.355555z m25.6-338.488889c-4.266667 8.533333-12.8 14.222222-21.333334 15.644445-8.533333 2.844444-18.488889 1.422222-27.022222-2.844445l-100.977778-58.311111c-17.066667-9.955556-22.755556-31.288889-12.8-46.933333s31.288889-22.755556 46.933334-12.8l100.977777 58.311111c8.533333 4.266667 14.222222 12.8 15.644445 21.333333 4.266667 7.111111 2.844444 17.066667-1.422222 25.6z m113.777777 439.466667l-58.311111 100.977778c-9.955556 17.066667-31.288889 22.755556-46.933333 12.8-17.066667-9.955556-22.755556-31.288889-12.8-46.933334l58.311111-100.977777c5.688889-11.377778 17.066667-17.066667 29.866667-17.066667 12.8 0 24.177778 7.111111 29.866666 17.066667 5.688889 9.955556 5.688889 22.755556 0 34.133333z m-12.8-540.444444c-8.533333 4.266667-17.066667 5.688889-27.022222 2.844444-8.533333-2.844444-17.066667-8.533333-21.333333-15.644444l-58.311111-100.977778c-5.688889-11.377778-5.688889-24.177778 0-35.555556 7.111111-9.955556 18.488889-17.066667 31.288889-17.066666 12.8 0 24.177778 7.111111 29.866666 17.066666l58.311111 100.977778c4.266667 8.533333 5.688889 17.066667 2.844445 27.022222-2.844444 8.533333-8.533333 15.644444-15.644445 21.333334zM554.666667 947.2c0 18.488889-15.644444 34.133333-35.555556 34.133333S483.555556 965.688889 483.555556 947.2v-115.2c0-18.488889 15.644444-34.133333 35.555555-34.133333s35.555556 15.644444 35.555556 34.133333v115.2z m0-753.777778c0 18.488889-15.644444 34.133333-35.555556 34.133334S483.555556 211.911111 483.555556 193.422222V76.8C483.555556 58.311111 499.2 42.666667 519.111111 42.666667S554.666667 58.311111 554.666667 76.8v116.622222z m209.066666-41.244444l-58.311111 100.977778c-5.688889 11.377778-17.066667 17.066667-29.866666 17.066666-12.8 0-24.177778-7.111111-29.866667-17.066666-5.688889-11.377778-5.688889-24.177778 0-35.555556l58.311111-100.977778c9.955556-17.066667 31.288889-22.755556 46.933333-12.8s21.333333 31.288889 12.8 48.355556z m-12.8 768c-8.533333 4.266667-17.066667 5.688889-27.022222 2.844444-8.533333-2.844444-17.066667-8.533333-21.333333-15.644444l-58.311111-100.977778c-9.955556-17.066667-4.266667-38.4 12.8-46.933333s38.4-4.266667 46.933333 12.8l58.311111 100.977777c4.266667 8.533333 5.688889 17.066667 2.844445 27.022223-1.422222 7.111111-7.111111 14.222222-14.222223 19.911111z m156.444445-598.755556l-100.977778 58.311111c-17.066667 9.955556-38.4 4.266667-46.933333-12.8s-4.266667-38.4 12.8-46.933333l100.977777-58.311111c11.377778-5.688889 24.177778-5.688889 35.555556 0s17.066667 18.488889 17.066667 29.866667c-1.422222 11.377778-8.533333 24.177778-18.488889 29.866666z m12.8 429.511111c-4.266667 8.533333-12.8 14.222222-21.333334 15.644445-8.533333 2.844444-18.488889 1.422222-27.022222-2.844445l-100.977778-58.311111c-11.377778-5.688889-17.066667-17.066667-17.066666-29.866666 0-12.8 7.111111-24.177778 17.066666-29.866667 11.377778-5.688889 24.177778-5.688889 35.555556 0l100.977778 58.311111c8.533333 4.266667 14.222222 12.8 15.644444 21.333333 2.844444 7.111111 1.422222 17.066667-2.844444 25.6zM981.333333 519.111111c0 19.911111-15.644444 35.555556-34.133333 35.555556h-115.2c-18.488889 0-34.133333-15.644444-34.133333-35.555556s15.644444-35.555556 34.133333-35.555555h115.2c18.488889 0 34.133333 15.644444 34.133333 35.555555z"
    p-id="43834"
  ></path>
</svg>
