<?xml version="1.0" standalone="no"?><!DOCTYPE svg PUBLIC "-//W3C//DTD SVG 1.1//EN" "http://www.w3.org/Graphics/SVG/1.1/DTD/svg11.dtd"
><svg
  t="1631092999804"
  class="icon"
  viewBox="0 0 1024 1024"
  version="1.1"
  xmlns="http://www.w3.org/2000/svg"
  p-id="2892"
  xmlns:xlink="http://www.w3.org/1999/xlink"
  width="200"
  height="200"
>
  <defs><style type="text/css"></style></defs>
  <path
    d="M570.4 570.4C528 612.8 472 636 412 636S296 612.8 253.6 570.4C211.2 528 188 472 188 412s23.2-116 65.6-158.4c42.4-42.4 98.4-65.6 158.4-65.6s116 23.2 158.4 65.6c42.4 42.4 65.6 98.4 65.6 158.4S612.8 528 570.4 570.4z m339.2 284L649.6 594.4c40-52 62.4-116 62.4-182.4 0-80-31.2-155.2-88-212S492 112 412 112 256.8 143.2 200 200c-56.8 56.8-88 132-88 212S143.2 567.2 200 624c56.8 56.8 132 88 212 88 67.2 0 130.4-21.6 182.4-62.4l260 260c3.2 3.2 8 3.2 11.2 0l44-43.2c3.2-3.2 3.2-8.8 0-12z"
    p-id="2893"
  ></path>
</svg>
